<?xml version="1.0" encoding="UTF-8"?>
<svg width="400" height="600" viewBox="0 0 400 600" xmlns="http://www.w3.org/2000/svg">
  <defs>
    <linearGradient id="bg" x1="0%" y1="0%" x2="100%" y2="100%">
      <stop offset="0%" style="stop-color:#e0f7fa;stop-opacity:1" />
      <stop offset="100%" style="stop-color:#b3e5fc;stop-opacity:1" />
    </linearGradient>
    <filter id="shadow" x="-50%" y="-50%" width="200%" height="200%">
      <feDropShadow dx="2" dy="2" stdDeviation="3" flood-opacity="0.2"/>
    </filter>
  </defs>
  
  <!-- 背景 -->
  <rect width="400" height="600" fill="url(#bg)"/>
  
  <!-- 头部 -->
  <circle cx="200" cy="120" r="62" fill="#fdbcb4" filter="url(#shadow)"/>
  
  <!-- 头发 -->
  <path d="M 145 95 Q 140 55 200 45 Q 260 55 255 95" fill="#3d3d3d"/>
  <path d="M 145 95 Q 140 140 155 165 L 245 165 Q 260 140 255 95" fill="#3d3d3d"/>
  
  <!-- 刘海 -->
  <path d="M 165 80 Q 175 68 200 68 Q 225 68 235 80" fill="#3d3d3d"/>
  
  <!-- 眼睛 -->
  <circle cx="175" cy="118" r="13" fill="#333"/>
  <circle cx="225" cy="118" r="13" fill="#333"/>
  <circle cx="178" cy="113" r="5" fill="#fff"/>
  <circle cx="228" cy="113" r="5" fill="#fff"/>
  
  <!-- 眉毛 -->
  <path d="M 160 98 Q 175 88 190 98" stroke="#3d3d3d" stroke-width="2" fill="none"/>
  <path d="M 210 98 Q 225 88 240 98" stroke="#3d3d3d" stroke-width="2" fill="none"/>
  
  <!-- 鼻子 -->
  <line x1="200" y1="120" x2="200" y2="138" stroke="#d4a5a0" stroke-width="1.5"/>
  
  <!-- 嘴巴 -->
  <path d="M 175 155 Q 200 170 225 155" stroke="#ff6b9d" stroke-width="2.5" fill="none" stroke-linecap="round"/>
  
  <!-- 腮红 -->
  <ellipse cx="140" cy="135" rx="22" ry="14" fill="rgba(255, 150, 170, 0.35)"/>
  <ellipse cx="260" cy="135" rx="22" ry="14" fill="rgba(255, 150, 170, 0.35)"/>
  
  <!-- 颈部 -->
  <rect x="190" y="175" width="20" height="25" fill="#fdbcb4"/>
  
  <!-- 颈部装饰 -->
  <path d="M 165 195 Q 200 185 235 195" stroke="#00bcd4" stroke-width="3" fill="none"/>
  
  <!-- 身体/衣服 -->
  <path d="M 160 205 L 240 205 L 255 285 L 145 285 Z" fill="#667eea" filter="url(#shadow)"/>
  
  <!-- 左臂 -->
  <ellipse cx="130" cy="240" rx="22" ry="55" fill="#fdbcb4" filter="url(#shadow)"/>
  
  <!-- 右臂 -->
  <ellipse cx="270" cy="240" rx="22" ry="55" fill="#fdbcb4" filter="url(#shadow)"/>
  
  <!-- 左手 -->
  <circle cx="110" cy="305" r="16" fill="#fdbcb4" filter="url(#shadow)"/>
  
  <!-- 右手 -->
  <circle cx="290" cy="305" r="16" fill="#fdbcb4" filter="url(#shadow)"/>
  
  <!-- 裙子 -->
  <path d="M 145 285 L 255 285 L 280 435 L 120 435 Z" fill="#667eea" filter="url(#shadow)"/>
  
  <!-- 裙子纹样 -->
  <line x1="160" y1="335" x2="240" y2="335" stroke="#00bcd4" stroke-width="1.5" opacity="0.7"/>
  <line x1="155" y1="385" x2="245" y2="385" stroke="#00bcd4" stroke-width="1.5" opacity="0.7"/>
  
  <!-- 腿 -->
  <rect x="175" y="435" width="16" height="75" rx="5" fill="#fdbcb4" filter="url(#shadow)"/>
  <rect x="209" y="435" width="16" height="75" rx="5" fill="#fdbcb4" filter="url(#shadow)"/>
  
  <!-- 鞋子 -->
  <ellipse cx="183" cy="520" rx="18" ry="13" fill="#333" filter="url(#shadow)"/>
  <ellipse cx="217" cy="520" rx="18" ry="13" fill="#333" filter="url(#shadow)"/>
  
  <!-- 波浪装饰 -->
  <text x="200" y="50" font-size="45" font-weight="bold" text-anchor="middle">🌊</text>
  
  <!-- 名字 -->
  <text x="200" y="560" font-size="32" font-weight="bold" text-anchor="middle" fill="#333" font-family="Arial">小小澜</text>
  
  <!-- 描述 -->
  <text x="200" y="585" font-size="14" font-weight="600" text-anchor="middle" fill="#667eea" font-family="Arial">AI Agent × 理财顾问</text>
  <text x="200" y="600" font-size="11" text-anchor="middle" fill="#999" font-family="Arial">聪明 · 靠谱 · 有点八卦</text>
</svg>